<svg fill="#FFFFFF" xmlns:dc="http://purl.org/dc/elements/1.1/" xmlns:cc="http://creativecommons.org/ns#" xmlns:rdf="http://www.w3.org/1999/02/22-rdf-syntax-ns#" xmlns:svg="http://www.w3.org/2000/svg" xmlns="http://www.w3.org/2000/svg" xmlns:sodipodi="http://sodipodi.sourceforge.net/DTD/sodipodi-0.dtd" xmlns:inkscape="http://www.inkscape.org/namespaces/inkscape" version="1.1" x="0px" y="0px" viewBox="0 0 100 100"><g transform="translate(0,-952.36218)"><path style="font-size:medium;font-style:normal;font-variant:normal;font-weight:normal;font-stretch:normal;text-indent:0;text-align:start;text-decoration:none;line-height:normal;letter-spacing:normal;word-spacing:normal;text-transform:none;direction:ltr;block-progression:tb;writing-mode:lr-tb;text-anchor:start;baseline-shift:baseline;opacity:1;color:#000000;fill:#FFFFFF;fill-opacity:1;stroke:none;stroke-width:3.64864874000000010;marker:none;visibility:visible;display:inline;overflow:visible;enable-background:accumulate;font-family:Sans;-inkscape-font-specification:Sans" d="M 46 12 C 25.025023 12 8 29.02504 8 50 C 8 70.975 25.025023 88 46 88 L 46.9375 88 L 47.03125 88 L 91 88 A 1.0020833 1.0020833 0 0 0 91 86 L 58.15625 86 C 73.177334 80.9268 84 66.7249 84 50 C 84 29.02504 66.974976 12 46 12 z M 46 14 C 65.894094 14 82 30.10592 82 50 C 82 69.5685 66.409651 85.484 46.96875 86 A 1.0001 1.0001 0 0 0 46.8125 86 L 46 86 C 26.105905 86 10 69.8941 10 50 C 10 30.10592 26.105905 14 46 14 z M 46 19 C 40.488997 19 36 23.489 36 29 C 36 34.511 40.488997 39 46 39 C 51.511003 39 56 34.511 56 29 C 56 23.489 51.511003 19 46 19 z M 46 21 C 50.430123 21 54 24.56988 54 29 C 54 33.43012 50.430123 37 46 37 C 41.569877 37 38 33.43012 38 29 C 38 24.56988 41.569877 21 46 21 z M 25 40 C 19.489053 40 15 44.48903 15 50 C 15 55.511 19.489058 60 25 60 C 30.511031 60 35 55.511 35 50 C 35 44.48904 30.511036 40 25 40 z M 67 40 C 61.488999 40 57 44.48903 57 50 C 57 55.511 61.489005 60 67 60 C 72.510995 60 77 55.511 77 50 C 77 44.48903 72.511001 40 67 40 z M 25 42 C 29.430164 42 33 45.56992 33 50 C 33 54.4302 29.430169 58 25 58 C 20.569942 58 17 54.4302 17 50 C 17 45.56993 20.569947 42 25 42 z M 67 42 C 71.430119 42 75 45.56993 75 50 C 75 54.4302 71.430125 58 67 58 C 62.569875 58 59 54.4302 59 50 C 59 45.56993 62.569881 42 67 42 z M 46 61 C 40.489002 61 36 65.489 36 71 C 36 76.5109 40.488988 81 46 81 C 51.511012 81 56 76.5109 56 71 C 56 65.489 51.510998 61 46 61 z M 46 63 C 50.430128 63 54 66.5698 54 71 C 54 75.4301 50.430114 79 46 79 C 41.569886 79 38 75.4301 38 71 C 38 66.5698 41.569872 63 46 63 z " transform="translate(0,952.36218)"></path></g></svg>