<svg fill="#FFFFFF" xmlns:dc="http://purl.org/dc/elements/1.1/" xmlns:cc="http://creativecommons.org/ns#" xmlns:rdf="http://www.w3.org/1999/02/22-rdf-syntax-ns#" xmlns:svg="http://www.w3.org/2000/svg" xmlns="http://www.w3.org/2000/svg" xmlns:sodipodi="http://sodipodi.sourceforge.net/DTD/sodipodi-0.dtd" xmlns:inkscape="http://www.inkscape.org/namespaces/inkscape" version="1.1" x="0px" y="0px" viewBox="0 0 100 100"><g transform="translate(0,-952.36218)"><path style="font-size:medium;font-style:normal;font-variant:normal;font-weight:normal;font-stretch:normal;text-indent:0;text-align:start;text-decoration:none;line-height:normal;letter-spacing:normal;word-spacing:normal;text-transform:none;direction:ltr;block-progression:tb;writing-mode:lr-tb;text-anchor:start;baseline-shift:baseline;opacity:1;color:#000000;fill:#FFFFFF;fill-opacity:1;stroke:none;stroke-width:1.99999988000000010;marker:none;visibility:visible;display:inline;overflow:visible;enable-background:accumulate;font-family:Sans;-inkscape-font-specification:Sans" d="M 50 8 C 46.224589 8 43.187414 11.03518 43.0625 14.78125 C 42.125013 14.32172 41.107401 14 40 14 C 36.422351 14 33.563594 16.74708 33.15625 20.21875 C 32.769583 20.14635 32.414474 20 32 20 C 28.145851 20 25 23.14585 25 27 C 25 27.8183 25.177101 28.58366 25.4375 29.3125 C 22.348293 30.0401 20 32.69637 20 36 C 20 37.367732 20.41075 38.639604 21.09375 39.71875 L 30 91.15625 A 1.0000999 1.0000999 0 0 0 31 92 L 69 92 A 1.0000999 1.0000999 0 0 0 70 91.15625 L 78.90625 39.71875 C 79.589248 38.639605 80 37.367741 80 36 C 80 32.69637 77.651707 30.0401 74.5625 29.3125 C 74.8229 28.58366 75 27.8183 75 27 C 75 23.14585 71.854149 20 68 20 C 67.585525 20 67.230416 20.14631 66.84375 20.21875 C 66.436406 16.74708 63.577649 14 60 14 C 58.8926 14 57.874988 14.32172 56.9375 14.78125 C 56.812586 11.03518 53.77541 8 50 8 z M 50 10 C 52.773269 10 55 12.22673 55 15 C 55 15.50765 54.899835 15.98702 54.75 16.46875 A 1.0000999 1.0000999 0 0 0 56.4375 17.46875 C 57.342229 16.55072 58.597176 16 60 16 C 62.773269 16 65 18.22673 65 21 C 65 20.997 64.98149 21.10347 64.96875 21.3125 A 1.0000999 1.0000999 0 0 0 66.3125 22.3125 C 66.860914 22.11476 67.421564 22 68 22 C 70.773269 22 73 24.22673 73 27 C 73 27.90869 72.740632 28.75991 72.3125 29.5 A 1.0000999 1.0000999 0 0 0 73.15625 31 C 75.853793 31.0818 78 33.27814 78 36 C 78 36.710448 77.855433 37.390733 77.59375 38 L 22.40625 38 C 22.144567 37.390733 22 36.710448 22 36 C 22 33.27814 24.146208 31.08181 26.84375 31 A 1.0000999 1.0000999 0 0 0 27.6875 29.5 C 27.259366 28.7599 27 27.90868 27 27 C 27 24.22673 29.226731 22 32 22 C 32.578438 22 33.139091 22.11476 33.6875 22.3125 A 1.0000999 1.0000999 0 0 0 35.03125 21.3125 C 35.018513 21.10347 35 20.9971 35 21 C 35 18.22673 37.226731 16 40 16 C 41.402822 16 42.65777 16.55073 43.5625 17.46875 A 1.0000999 1.0000999 0 0 0 45.25 16.46875 C 45.100164 15.98701 45 15.50765 45 15 C 45 12.22673 47.226731 10 50 10 z M 23.1875 40 L 31.0625 40 L 36.90625 90 L 31.84375 90 L 23.1875 40 z M 33.09375 40 L 43.03125 40 L 44.96875 90 L 38.9375 90 L 33.09375 40 z M 45.03125 40 L 54.96875 40 L 53.03125 90 L 46.96875 90 L 45.03125 40 z M 56.96875 40 L 66.90625 40 L 61.0625 90 L 55.03125 90 L 56.96875 40 z M 68.9375 40 L 76.8125 40 L 68.15625 90 L 63.09375 90 L 68.9375 40 z " transform="translate(0,952.36218)"></path></g></svg>