<svg fill="#FFFFFF" xmlns="http://www.w3.org/2000/svg" xmlns:xlink="http://www.w3.org/1999/xlink" version="1.1" x="0px" y="0px" viewBox="0 0 100 100" style="enable-background:new 0 0 100 100;" xml:space="preserve"><g><path d="M23.8,39.1v40.5c0,6.1,4.9,11,11,11h30.4c6.1,0,11-4.9,11-11V39.1c3.2-0.1,5.8-2.8,5.8-6V25c0-3.3-2.7-6-6-6H64.6v-3.1   c0-3.6-2.9-6.5-6.5-6.5H41.9c-3.6,0-6.5,2.9-6.5,6.5V19H24c-3.3,0-6,2.7-6,6v8.2C18,36.4,20.6,39,23.8,39.1z M65.2,84.7H34.8   c-2.8,0-5-2.2-5-5V39.2h40.4v40.5C70.2,82.4,67.9,84.7,65.2,84.7z M41.4,15.9c0-0.3,0.2-0.5,0.5-0.5h16.1c0.3,0,0.5,0.2,0.5,0.5V19   H41.4V15.9z M24,25H76l0,8.2H24V25z"></path><rect x="57.3" y="46.8" width="6" height="29.2"></rect><rect x="47" y="46.8" width="6" height="29.2"></rect><rect x="36.7" y="46.8" width="6" height="29.2"></rect></g></svg>