<?xml version="1.0" standalone="no"?>
<!DOCTYPE svg PUBLIC "-//W3C//DTD SVG 20010904//EN"
 "http://www.w3.org/TR/2001/REC-SVG-20010904/DTD/svg10.dtd">
<svg version="1.0" xmlns="http://www.w3.org/2000/svg"
 width="700.000000pt" height="700.000000pt" viewBox="0 0 700.000000 700.000000"
 preserveAspectRatio="xMidYMid meet">
<metadata>
Created by potrace 1.11, written by Peter Selinger 2001-2013
</metadata>
<g transform="translate(0.000000,700.000000) scale(0.100000,-0.100000)"
fill="#000000" stroke="none">
<path d="M3375 6421 c-86 -25 -141 -56 -203 -114 -85 -81 -152 -215 -152 -306
0 -17 -3 -31 -7 -31 -5 0 -33 10 -63 21 -107 42 -257 31 -372 -27 -102 -51
-224 -206 -242 -307 -12 -68 -12 -68 -79 -61 -120 12 -263 -44 -361 -142 -92
-93 -138 -200 -141 -327 -2 -45 3 -99 11 -125 8 -25 11 -49 7 -53 -5 -3 -26
-12 -48 -19 -101 -32 -223 -139 -275 -239 -63 -125 -61 -300 5 -432 13 -26 27
-68 31 -95 3 -27 7 -51 9 -54 2 -3 6 -30 10 -60 4 -30 8 -57 10 -60 2 -3 6
-24 9 -46 4 -22 9 -51 11 -64 4 -20 52 -296 91 -525 3 -16 14 -79 24 -140 11
-60 22 -126 25 -145 7 -38 42 -240 50 -280 2 -14 20 -119 40 -235 19 -115 38
-223 40 -240 3 -16 10 -52 15 -80 5 -27 12 -66 15 -85 3 -19 7 -46 10 -60 3
-14 7 -41 10 -60 3 -19 14 -82 25 -140 11 -58 22 -123 25 -145 3 -22 8 -51 11
-65 5 -29 6 -33 34 -195 11 -66 22 -131 25 -145 8 -49 74 -426 80 -460 3 -19
10 -62 16 -95 6 -33 13 -73 16 -90 10 -71 13 -81 31 -105 l19 -25 1355 -3
c1336 -2 1356 -2 1380 18 24 18 30 35 44 135 3 17 7 40 10 53 7 32 33 184 39
230 5 35 8 52 20 112 3 14 10 54 15 90 6 36 13 76 16 90 2 14 7 41 10 60 3 19
7 42 9 50 2 8 6 29 9 45 9 52 65 378 75 435 6 30 12 71 15 90 3 19 17 98 30
175 13 77 27 156 30 175 3 19 8 46 11 60 5 26 33 185 41 239 3 18 8 43 10 55
2 11 11 62 20 111 8 50 17 101 20 115 10 60 15 84 43 255 17 99 33 198 36 220
3 22 8 46 10 53 3 7 9 41 15 75 5 34 12 73 15 87 10 60 56 328 60 355 3 17 7
41 10 55 2 14 7 41 10 60 3 19 8 42 10 50 2 8 7 35 10 59 4 25 17 65 30 90 72
143 68 324 -10 457 -45 77 -125 150 -207 189 -40 19 -78 35 -85 35 -19 0 -24
16 -13 46 6 15 13 60 17 99 10 132 -43 267 -145 370 -94 94 -234 149 -365 143
l-60 -3 -12 52 c-28 121 -118 243 -229 308 -110 64 -273 80 -386 36 -30 -11
-57 -21 -60 -21 -3 0 -7 16 -8 35 -4 55 -38 150 -75 207 -63 98 -155 169 -266
205 -70 22 -195 24 -266 4z m200 -132 c200 -47 304 -223 260 -440 -8 -43 6
-76 38 -88 28 -11 58 1 105 38 63 51 129 74 211 76 111 2 188 -29 260 -103 55
-58 90 -132 97 -208 8 -93 12 -104 46 -118 25 -11 40 -11 80 0 165 43 332 -37
407 -196 37 -79 36 -200 -2 -283 -32 -71 -31 -62 -10 -97 19 -33 26 -36 93
-45 110 -15 211 -89 262 -193 30 -60 33 -75 32 -152 0 -47 -6 -97 -12 -113
l-12 -27 -1932 2 -1932 3 -12 49 c-19 73 -11 164 19 230 48 103 160 188 268
201 67 8 76 13 93 50 16 32 16 37 -2 72 -51 103 -53 214 -6 311 75 154 239
231 401 189 42 -11 57 -11 82 -1 32 14 38 27 45 109 26 290 350 422 580 236
21 -17 42 -31 45 -32 3 0 14 -2 25 -4 10 -2 30 8 43 21 22 22 25 31 18 67 -16
85 -9 189 14 242 70 158 234 242 396 204z m-1394 -2145 c4 -28 9 -78 13 -110
3 -33 8 -75 10 -94 3 -19 10 -78 16 -130 6 -52 13 -111 15 -130 3 -19 7 -57
10 -85 3 -27 10 -84 15 -125 5 -41 12 -100 15 -130 7 -64 14 -121 20 -170 3
-19 7 -62 11 -95 3 -33 7 -71 9 -85 2 -14 6 -50 10 -80 3 -30 8 -71 10 -90 3
-19 7 -57 10 -85 6 -51 12 -102 20 -165 2 -19 7 -60 10 -90 4 -30 8 -66 10
-80 2 -14 6 -54 10 -90 4 -36 8 -76 10 -90 4 -26 15 -117 20 -160 7 -68 17
-158 20 -180 2 -14 7 -50 10 -80 3 -30 7 -71 10 -90 2 -19 7 -60 10 -90 4 -30
8 -66 10 -80 2 -14 6 -47 9 -75 9 -80 25 -227 31 -270 15 -120 25 -206 31
-255 3 -30 7 -66 9 -80 2 -14 6 -55 10 -92 l7 -68 -175 0 -176 0 -10 52 c-6
29 -29 159 -51 288 -22 129 -42 246 -45 260 -2 13 -7 40 -10 60 -3 20 -8 47
-10 60 -3 14 -8 41 -11 60 -2 19 -8 49 -11 65 -3 17 -7 39 -8 50 -2 17 -15 90
-49 280 -5 28 -15 84 -21 120 -3 17 -12 68 -20 115 -8 47 -17 102 -21 124 -3
21 -8 48 -10 60 -5 27 -8 40 -49 281 -19 110 -38 216 -41 235 -3 19 -8 44 -9
55 -2 11 -9 47 -15 80 -5 33 -12 71 -15 85 -4 24 -33 195 -39 235 -5 30 -20
109 -21 115 -1 3 -5 28 -10 55 -4 28 -9 59 -11 70 -2 11 -6 36 -10 55 -3 19
-9 55 -14 80 -5 25 -11 59 -14 75 -6 40 -25 153 -32 190 -3 17 -16 90 -28 163
l-23 132 276 -2 276 -3 6 -51z m830 49 c1 -8 3 -43 13 -323 4 -96 9 -222 11
-280 3 -58 7 -163 10 -235 3 -71 7 -195 10 -275 3 -80 7 -194 10 -255 5 -116
14 -343 20 -510 5 -134 15 -388 20 -505 3 -52 7 -169 10 -260 3 -91 7 -205 10
-255 2 -49 7 -170 10 -267 3 -98 8 -211 10 -253 l5 -75 -213 0 c-164 0 -214 3
-214 13 -1 18 -15 149 -18 167 -2 8 -6 44 -9 80 -4 36 -9 76 -11 90 -2 14 -7
54 -11 90 -3 36 -8 74 -10 85 -2 11 -6 49 -10 85 -3 36 -7 76 -9 90 -7 45 -14
104 -20 160 -3 30 -10 91 -15 135 -5 44 -12 103 -15 130 -3 28 -10 84 -15 125
-12 99 -18 154 -25 215 -5 49 -11 95 -20 165 -2 19 -7 55 -9 80 -7 60 -25 215
-32 265 -2 22 -6 56 -8 75 -9 85 -17 157 -21 180 -3 14 -7 54 -10 90 -4 36 -8
76 -10 90 -2 14 -7 52 -10 85 -3 33 -8 67 -10 75 -2 8 -7 48 -10 88 -4 41 -8
81 -10 91 -3 18 -14 106 -20 161 -9 98 -16 157 -20 180 -2 14 -7 52 -10 85 -3
33 -8 76 -11 95 -5 35 -7 52 -19 168 l-7 62 346 0 c190 0 346 -3 347 -7z m834
-65 c-2 -40 -7 -156 -10 -258 -4 -102 -8 -219 -10 -260 -2 -41 -6 -154 -10
-250 -3 -96 -8 -213 -10 -260 -2 -47 -7 -159 -10 -250 -3 -91 -8 -212 -10
-270 -3 -58 -7 -175 -10 -260 -3 -85 -7 -202 -10 -260 -2 -58 -7 -168 -10
-245 -11 -291 -15 -413 -19 -510 -3 -55 -8 -181 -12 -280 -6 -162 -10 -258
-13 -307 -1 -17 -18 -18 -213 -18 l-213 0 -1 88 c-2 79 -4 154 -19 512 -3 63
-7 176 -10 250 -3 74 -7 191 -10 260 -3 69 -7 181 -10 250 -6 156 -13 344 -20
520 -3 74 -8 191 -10 260 -6 146 -12 316 -20 525 -16 415 -27 680 -30 763 l-3
72 348 0 348 0 -3 -72z m830 0 c-4 -40 -9 -81 -10 -90 -2 -9 -7 -48 -10 -85
-4 -37 -9 -75 -10 -83 -1 -8 -6 -44 -10 -80 -3 -36 -8 -76 -10 -90 -2 -14 -6
-50 -10 -80 -6 -55 -11 -97 -20 -167 -2 -21 -7 -63 -10 -93 -3 -30 -10 -89
-15 -130 -8 -69 -15 -127 -26 -220 -7 -61 -15 -134 -19 -160 -2 -14 -6 -54
-10 -90 -4 -36 -8 -76 -10 -90 -8 -55 -17 -128 -20 -166 -4 -43 -11 -99 -25
-214 -5 -41 -12 -97 -15 -125 -3 -27 -7 -66 -9 -85 -3 -19 -7 -64 -11 -100 -3
-36 -8 -72 -10 -80 -2 -8 -7 -44 -10 -80 -3 -36 -10 -92 -15 -125 -5 -33 -12
-89 -15 -125 -4 -36 -8 -78 -10 -95 -7 -52 -14 -118 -20 -167 -7 -70 -16 -140
-20 -168 -2 -14 -7 -54 -11 -90 -7 -70 -8 -83 -19 -175 -4 -33 -10 -85 -14
-115 l-6 -55 -212 -3 -213 -2 4 77 c3 43 8 157 11 253 3 96 8 218 10 270 4 90
8 199 20 505 3 72 7 184 10 250 3 66 7 183 10 260 2 77 7 192 10 255 3 63 7
183 10 265 3 83 8 200 10 260 3 61 7 178 10 260 3 83 8 193 10 245 2 52 7 174
10 270 6 159 10 246 14 308 l1 22 346 0 346 0 -7 -72z m697 67 c3 -3 0 -34 -8
-68 -7 -34 -15 -82 -19 -107 -3 -25 -8 -58 -12 -75 -4 -16 -7 -37 -8 -45 -2
-13 -55 -321 -69 -400 -8 -43 -54 -309 -81 -465 -41 -241 -95 -548 -99 -570
-2 -11 -7 -40 -11 -65 -4 -25 -9 -52 -10 -61 -2 -9 -6 -32 -9 -50 -6 -33 -40
-232 -111 -639 -19 -113 -38 -218 -41 -235 -14 -75 -86 -493 -89 -521 -2 -18
-11 -66 -19 -108 -9 -41 -16 -78 -16 -81 0 -3 -79 -5 -176 -5 l-177 0 7 68 c8
72 11 97 26 212 5 41 12 98 15 125 8 77 15 137 20 175 2 19 7 60 10 90 3 30 8
71 10 90 5 40 13 105 20 170 3 25 7 59 10 75 2 17 7 57 10 90 3 33 8 74 10 90
2 17 7 55 10 85 3 30 8 71 10 90 20 163 25 203 31 257 3 35 8 75 10 90 2 16 6
53 9 83 4 30 8 66 10 80 2 14 7 52 10 85 4 33 8 71 10 85 2 14 7 52 10 85 3
33 8 71 10 85 2 14 7 50 10 80 7 68 16 150 20 170 1 8 6 47 10 85 7 69 11 105
20 175 2 19 7 58 10 85 6 57 13 119 21 185 3 25 7 62 10 83 2 20 6 54 9 75 3
20 7 60 10 87 3 28 7 64 9 80 12 96 19 162 19 173 0 9 61 12 272 12 149 0 274
-2 277 -5z"/>
</g>
</svg>
